<svg width="800" height="467" viewBox="0 0 800 467" fill="none" xmlns="http://www.w3.org/2000/svg">
<path d="M218.711 109.378C218.711 328.089 364.822 324.333 333.333 333.333C177.778 377.778 137.711 164.044 123.022 164.044C70.1778 164.044 0 154.644 0 109.378C0 64.0667 54.6667 0 136.689 0C189.556 0 218.711 64.0667 218.711 109.378ZM800 303.067C800 327.6 721.822 286.6 688.889 303.067C644.444 325.289 644.444 283.156 644.444 258.622C644.444 234.089 674.289 236.4 711.111 236.4C747.933 236.4 800 278.511 800 303.067Z" fill="#77B255"/>
<path class="leg1" d="M561.911 403.178C561.911 464.533 590.311 466.667 625.378 466.667C660.467 466.667 688.889 464.511 688.889 403.178C688.675 391.248 686.928 379.395 683.689 367.911C668.333 310.356 622.489 244.444 593.644 244.444C558.578 244.444 561.911 341.822 561.911 403.178Z" fill="#77B255"/>
<path class="leg2" d="M371.444 403.178C371.444 464.533 343.022 466.667 307.956 466.667C272.889 466.667 244.444 464.511 244.444 403.178C244.444 392.311 246.333 380.311 249.644 367.911C264.978 310.356 310.844 244.444 339.689 244.444C374.756 244.444 371.444 341.822 371.444 403.178Z" fill="#77B255"/>
<path d="M711.111 266.667C711.111 355.556 596.689 355.556 455.556 355.556C314.422 355.556 200 355.556 200 266.667C200 119.4 314.422 0 455.556 0C596.689 0 711.111 119.4 711.111 266.667Z" fill="#3E721D"/>
<path d="M111.111 88.8889C123.384 88.8889 133.333 78.9397 133.333 66.6667C133.333 54.3937 123.384 44.4445 111.111 44.4445C98.8381 44.4445 88.8889 54.3937 88.8889 66.6667C88.8889 78.9397 98.8381 88.8889 111.111 88.8889Z" fill="#292F33"/>
<path d="M525.933 224.444C525.933 304.244 494.422 311.111 455.556 311.111C416.689 311.111 385.178 304.222 385.178 224.444C385.178 144.667 416.667 44.4445 455.556 44.4445C494.444 44.4445 525.933 144.667 525.933 224.444ZM666.667 200C686.022 277.378 649.244 288.889 610.378 288.889C571.511 288.889 554.089 304.222 554.089 224.444C554.089 144.667 529.289 80 568.156 80C607 80 644.444 111.111 666.667 200ZM357.044 224.444C357.044 304.244 339.6 288.889 300.733 288.889C261.867 288.889 225.089 277.378 244.444 200C266.667 111.111 316.689 80 355.556 80C394.444 80 357.044 144.667 357.044 224.444Z" fill="#5C913B"/>
</svg>
