<svg width="800" height="467" viewBox="0 0 800 467" fill="none" xmlns="http://www.w3.org/2000/svg">
<path d="M218.711 109.711C218.711 328.422 364.822 324.667 333.333 333.667C177.778 378.111 137.711 164.378 123.022 164.378C70.1778 164.378 0 154.978 0 109.711C0 64.4001 54.6667 0.333374 136.689 0.333374C189.556 0.333374 218.711 64.4001 218.711 109.711ZM800 303.4C800 327.933 721.822 286.933 688.889 303.4C644.444 325.622 644.444 283.489 644.444 258.956C644.444 234.422 674.289 236.733 711.111 236.733C747.933 236.733 800 278.844 800 303.4Z" fill="#77B255"/>
<path class="leg1" d="M573.199 415.662C585.955 475.677 614.178 471.858 648.479 464.568C682.801 457.272 710.154 449.255 697.402 389.262C694.712 377.637 690.539 366.406 684.983 355.847C657.997 302.741 599.45 247.802 571.236 253.799C536.936 261.09 560.442 355.647 573.199 415.662Z" fill="#77B255"/>
<path class="leg2" d="M360.157 415.664C347.4 475.679 319.155 471.856 284.855 464.566C250.555 457.275 223.18 449.252 235.932 389.259C238.191 378.63 242.534 367.285 248.351 355.845C275.315 302.735 333.883 247.8 362.097 253.797C396.398 261.088 372.913 355.649 360.157 415.664Z" fill="#77B255"/>
<path d="M711.111 267C711.111 355.889 596.689 355.889 455.556 355.889C314.422 355.889 200 355.889 200 267C200 119.733 314.422 0.333374 455.556 0.333374C596.689 0.333374 711.111 119.733 711.111 267Z" fill="#3E721D"/>
<path d="M111.111 89.2222C123.384 89.2222 133.333 79.273 133.333 67C133.333 54.727 123.384 44.7778 111.111 44.7778C98.8381 44.7778 88.8889 54.727 88.8889 67C88.8889 79.273 98.8381 89.2222 111.111 89.2222Z" fill="#292F33"/>
<path d="M525.933 224.778C525.933 304.578 494.422 311.444 455.556 311.444C416.689 311.444 385.178 304.556 385.178 224.778C385.178 145 416.667 44.7778 455.556 44.7778C494.444 44.7778 525.933 145 525.933 224.778ZM666.667 200.333C686.022 277.711 649.244 289.222 610.378 289.222C571.511 289.222 554.089 304.556 554.089 224.778C554.089 145 529.289 80.3333 568.156 80.3333C607 80.3333 644.444 111.444 666.667 200.333ZM357.044 224.778C357.044 304.578 339.6 289.222 300.733 289.222C261.867 289.222 225.089 277.711 244.444 200.333C266.667 111.444 316.689 80.3333 355.556 80.3333C394.444 80.3333 357.044 145 357.044 224.778Z" fill="#5C913B"/>
</svg>
