<svg width="800" height="467" viewBox="0 0 800 467" fill="none" xmlns="http://www.w3.org/2000/svg">
<path d="M218.711 109.711C218.711 328.422 364.822 324.667 333.333 333.667C177.778 378.111 137.711 164.378 123.022 164.378C70.1778 164.378 0 154.978 0 109.711C0 64.4 54.6667 0.333344 136.689 0.333344C189.556 0.333344 218.711 64.4 218.711 109.711ZM800 303.4C800 327.933 721.822 286.933 688.889 303.4C644.444 325.622 644.444 283.489 644.444 258.956C644.444 234.422 674.289 236.733 711.111 236.733C747.933 236.733 800 278.844 800 303.4Z" fill="#77B255"/>
<path class="leg1" d="M553.396 389.279C540.64 449.294 567.976 457.285 602.276 464.576C636.598 471.872 664.847 475.672 677.599 415.679C679.871 403.966 680.626 392.009 679.845 380.102C676.792 320.612 645.653 246.609 617.439 240.612C583.138 233.322 566.153 329.264 553.396 389.279Z" fill="#77B255"/>
<path class="leg2" d="M379.959 389.277C392.715 449.292 365.358 457.288 331.058 464.578C296.757 471.869 268.486 475.675 255.734 415.682C253.475 405.052 252.828 392.922 253.488 380.104C256.52 320.619 287.681 246.612 315.895 240.614C350.195 233.324 367.202 329.262 379.959 389.277Z" fill="#77B255"/>
<path d="M711.111 267C711.111 355.889 596.689 355.889 455.556 355.889C314.422 355.889 200 355.889 200 267C200 119.733 314.422 0.333344 455.556 0.333344C596.689 0.333344 711.111 119.733 711.111 267Z" fill="#3E721D"/>
<path d="M111.111 89.2222C123.384 89.2222 133.333 79.273 133.333 67C133.333 54.727 123.384 44.7778 111.111 44.7778C98.8381 44.7778 88.8889 54.727 88.8889 67C88.8889 79.273 98.8381 89.2222 111.111 89.2222Z" fill="#292F33"/>
<path d="M525.933 224.778C525.933 304.578 494.422 311.444 455.556 311.444C416.689 311.444 385.178 304.556 385.178 224.778C385.178 145 416.667 44.7778 455.556 44.7778C494.444 44.7778 525.933 145 525.933 224.778ZM666.667 200.333C686.022 277.711 649.244 289.222 610.378 289.222C571.511 289.222 554.089 304.556 554.089 224.778C554.089 145 529.289 80.3333 568.156 80.3333C607 80.3333 644.444 111.444 666.667 200.333ZM357.044 224.778C357.044 304.578 339.6 289.222 300.733 289.222C261.867 289.222 225.089 277.711 244.444 200.333C266.667 111.444 316.689 80.3333 355.556 80.3333C394.444 80.3333 357.044 145 357.044 224.778Z" fill="#5C913B"/>
</svg>
